<svg width="40" height="58" viewBox="0 0 40 58" fill="none" xmlns="http://www.w3.org/2000/svg">
<path d="M0.4675 38.88C4.6275 38.88 8.9475 38.88 13.0275 38.88C13.1075 42.56 15.5075 44.4 19.3475 44.4C23.2675 44.4 25.4275 41.44 25.5075 37.68C25.4275 29.6 17.4275 29.92 11.3475 30.16V28.24L18.7875 12.72H2.6275V-3.8147e-06H38.2275V2.08L27.9075 20.96C36.7875 23.2 39.3475 30.4 39.3475 37.6C39.4275 47.12 32.6275 57.12 19.6675 57.12C15.4275 57.12 12.3875 56.24 9.6675 54.72C4.3875 51.76 0.4675 46.08 0.4675 38.88Z" fill="#825890"/>
</svg>
